<svg xmlns="http://www.w3.org/2000/svg" width="900" height="852" viewBox="0 0 900 852"><rect width="900" height="852" fill="#ffffff"/><text x="12" y="20" font-size="13" font-family="Helvetica, Arial, sans-serif" fill="#374151">One SMS turn · 17453 ms · 36 spans</text><text x="12" y="45" font-size="12" font-family="Menlo, Consolas, monospace" fill="#111827">stride.chat.turn</text><rect x="300.0" y="34" width="580.0" height="14" rx="3" fill="#111827"/><text x="840.0" y="45" font-size="11" font-family="Helvetica, Arial, sans-serif" fill="#6b7280">17453 ms</text><text x="26" y="67" font-size="12" font-family="Menlo, Consolas, monospace" fill="#111827">DynamoDB.GetItem</text><rect x="320.1" y="56" width="2.0" height="14" rx="3" fill="#d97706"/><text x="328.1" y="67" font-size="11" font-family="Helvetica, Arial, sans-serif" fill="#6b7280">1 ms</text><text x="26" y="89" font-size="12" font-family="Menlo, Consolas, monospace" fill="#111827">DynamoDB.Query</text><rect x="320.1" y="78" width="2.0" height="14" rx="3" fill="#d97706"/><text x="328.1" y="89" font-size="11" font-family="Helvetica, Arial, sans-serif" fill="#6b7280">1 ms</text><text x="26" y="111" font-size="12" font-family="Menlo, Consolas, monospace" fill="#111827">DynamoDB.GetItem</text><rect x="320.1" y="100" width="2.0" height="14" rx="3" fill="#d97706"/><text x="328.1" y="111" font-size="11" font-family="Helvetica, Arial, sans-serif" fill="#6b7280">1 ms</text><text x="26" y="133" font-size="12" font-family="Menlo, Consolas, monospace" fill="#111827">DynamoDB.Query</text><rect x="320.4" y="122" width="2.0" height="14" rx="3" fill="#d97706"/><text x="328.4" y="133" font-size="11" font-family="Helvetica, Arial, sans-serif" fill="#6b7280">1 ms</text><text x="26" y="155" font-size="12" font-family="Menlo, Consolas, monospace" fill="#111827">DynamoDB.GetItem</text><rect x="320.5" y="144" width="2.0" height="14" rx="3" fill="#d97706"/><text x="328.5" y="155" font-size="11" font-family="Helvetica, Arial, sans-serif" fill="#6b7280">1 ms</text><text x="26" y="177" font-size="12" font-family="Menlo, Consolas, monospace" fill="#111827">DynamoDB.Query</text><rect x="320.5" y="166" width="2.0" height="14" rx="3" fill="#d97706"/><text x="328.5" y="177" font-size="11" font-family="Helvetica, Arial, sans-serif" fill="#6b7280">1 ms</text><text x="26" y="199" font-size="12" font-family="Menlo, Consolas, monospace" fill="#111827">DynamoDB.GetItem</text><rect x="320.6" y="188" width="2.0" height="14" rx="3" fill="#d97706"/><text x="328.6" y="199" font-size="11" font-family="Helvetica, Arial, sans-serif" fill="#6b7280">1 ms</text><text x="26" y="221" font-size="12" font-family="Menlo, Consolas, monospace" fill="#111827">Strands Agent</text><rect x="320.6" y="210" width="559.2" height="14" rx="3" fill="#2563eb"/><text x="840.0" y="221" font-size="11" font-family="Helvetica, Arial, sans-serif" fill="#6b7280">16828 ms</text><text x="40" y="243" font-size="12" font-family="Menlo, Consolas, monospace" fill="#111827">Cycle 3f81d51e-48ca-44f9-bd0c-92e1a40...</text><rect x="320.6" y="232" width="111.8" height="14" rx="3" fill="#2563eb"/><text x="438.4" y="243" font-size="11" font-family="Helvetica, Arial, sans-serif" fill="#6b7280">3365 ms</text><text x="54" y="265" font-size="12" font-family="Menlo, Consolas, monospace" fill="#111827">Model invoke</text><rect x="320.6" y="254" width="111.4" height="14" rx="3" fill="#2563eb"/><text x="438.0" y="265" font-size="11" font-family="Helvetica, Arial, sans-serif" fill="#6b7280">3352 ms</text><text x="54" y="287" font-size="12" font-family="Menlo, Consolas, monospace" fill="#111827">Tool: set_user_preference</text><rect x="432.0" y="276" width="2.0" height="14" rx="3" fill="#059669"/><text x="440.0" y="287" font-size="11" font-family="Helvetica, Arial, sans-serif" fill="#6b7280">12 ms</text><text x="54" y="309" font-size="12" font-family="Menlo, Consolas, monospace" fill="#111827">Tool: resolve_date</text><rect x="432.4" y="298" width="2.0" height="14" rx="3" fill="#059669"/><text x="440.4" y="309" font-size="11" font-family="Helvetica, Arial, sans-serif" fill="#6b7280">0 ms</text><text x="40" y="331" font-size="12" font-family="Menlo, Consolas, monospace" fill="#111827">Cycle ebf766a8-fdec-41dc-bc57-7a21aaf...</text><rect x="432.5" y="320" width="95.2" height="14" rx="3" fill="#2563eb"/><text x="533.6" y="331" font-size="11" font-family="Helvetica, Arial, sans-serif" fill="#6b7280">2864 ms</text><text x="54" y="353" font-size="12" font-family="Menlo, Consolas, monospace" fill="#111827">Model invoke</text><rect x="432.5" y="342" width="95.0" height="14" rx="3" fill="#2563eb"/><text x="533.5" y="353" font-size="11" font-family="Helvetica, Arial, sans-serif" fill="#6b7280">2859 ms</text><text x="54" y="375" font-size="12" font-family="Menlo, Consolas, monospace" fill="#111827">Tool: create_project</text><rect x="527.5" y="364" width="2.0" height="14" rx="3" fill="#059669"/><text x="535.5" y="375" font-size="11" font-family="Helvetica, Arial, sans-serif" fill="#6b7280">5 ms</text><text x="40" y="397" font-size="12" font-family="Menlo, Consolas, monospace" fill="#111827">Cycle ab2e81ef-0402-4dda-889c-943ebd7...</text><rect x="527.6" y="386" width="89.1" height="14" rx="3" fill="#2563eb"/><text x="622.8" y="397" font-size="11" font-family="Helvetica, Arial, sans-serif" fill="#6b7280">2682 ms</text><text x="54" y="419" font-size="12" font-family="Menlo, Consolas, monospace" fill="#111827">Model invoke</text><rect x="527.7" y="408" width="88.7" height="14" rx="3" fill="#2563eb"/><text x="622.4" y="419" font-size="11" font-family="Helvetica, Arial, sans-serif" fill="#6b7280">2670 ms</text><text x="54" y="441" font-size="12" font-family="Menlo, Consolas, monospace" fill="#111827">Tool: create_work_cycle</text><rect x="616.4" y="430" width="2.0" height="14" rx="3" fill="#059669"/><text x="624.4" y="441" font-size="11" font-family="Helvetica, Arial, sans-serif" fill="#6b7280">11 ms</text><text x="40" y="463" font-size="12" font-family="Menlo, Consolas, monospace" fill="#111827">Cycle 9b4b2c9c-97f3-4b87-b2c5-e69759c...</text><rect x="616.8" y="452" width="136.4" height="14" rx="3" fill="#2563eb"/><text x="759.2" y="463" font-size="11" font-family="Helvetica, Arial, sans-serif" fill="#6b7280">4104 ms</text><text x="54" y="485" font-size="12" font-family="Menlo, Consolas, monospace" fill="#111827">Model invoke</text><rect x="616.8" y="474" width="136.2" height="14" rx="3" fill="#2563eb"/><text x="759.0" y="485" font-size="11" font-family="Helvetica, Arial, sans-serif" fill="#6b7280">4098 ms</text><text x="54" y="507" font-size="12" font-family="Menlo, Consolas, monospace" fill="#111827">Tool: create_task</text><rect x="753.0" y="496" width="2.0" height="14" rx="3" fill="#059669"/><text x="761.0" y="507" font-size="11" font-family="Helvetica, Arial, sans-serif" fill="#6b7280">3 ms</text><text x="54" y="529" font-size="12" font-family="Menlo, Consolas, monospace" fill="#111827">Tool: create_task</text><rect x="753.1" y="518" width="2.0" height="14" rx="3" fill="#059669"/><text x="761.1" y="529" font-size="11" font-family="Helvetica, Arial, sans-serif" fill="#6b7280">3 ms</text><text x="40" y="551" font-size="12" font-family="Menlo, Consolas, monospace" fill="#111827">Cycle 33d6a349-c8de-4863-8ebc-b71cc36...</text><rect x="753.2" y="540" width="46.6" height="14" rx="3" fill="#2563eb"/><text x="805.8" y="551" font-size="11" font-family="Helvetica, Arial, sans-serif" fill="#6b7280">1402 ms</text><text x="54" y="573" font-size="12" font-family="Menlo, Consolas, monospace" fill="#111827">Model invoke</text><rect x="753.2" y="562" width="46.3" height="14" rx="3" fill="#2563eb"/><text x="805.5" y="573" font-size="11" font-family="Helvetica, Arial, sans-serif" fill="#6b7280">1392 ms</text><text x="54" y="595" font-size="12" font-family="Menlo, Consolas, monospace" fill="#111827">Tool: complete_onboarding</text><rect x="799.5" y="584" width="2.0" height="14" rx="3" fill="#059669"/><text x="807.5" y="595" font-size="11" font-family="Helvetica, Arial, sans-serif" fill="#6b7280">8 ms</text><text x="40" y="617" font-size="12" font-family="Menlo, Consolas, monospace" fill="#111827">Cycle 97dab927-790a-400d-b88d-cda9b52...</text><rect x="799.8" y="606" width="80.0" height="14" rx="3" fill="#2563eb"/><text x="840.0" y="617" font-size="11" font-family="Helvetica, Arial, sans-serif" fill="#6b7280">2408 ms</text><text x="54" y="639" font-size="12" font-family="Menlo, Consolas, monospace" fill="#111827">Model invoke</text><rect x="799.8" y="628" width="80.0" height="14" rx="3" fill="#2563eb"/><text x="840.0" y="639" font-size="11" font-family="Helvetica, Arial, sans-serif" fill="#6b7280">2408 ms</text><text x="26" y="661" font-size="12" font-family="Menlo, Consolas, monospace" fill="#111827">DynamoDB.UpdateItem</text><rect x="432.1" y="650" width="2.0" height="14" rx="3" fill="#d97706"/><text x="440.1" y="661" font-size="11" font-family="Helvetica, Arial, sans-serif" fill="#6b7280">10 ms</text><text x="26" y="683" font-size="12" font-family="Menlo, Consolas, monospace" fill="#111827">DynamoDB.PutItem</text><rect x="527.6" y="672" width="2.0" height="14" rx="3" fill="#d97706"/><text x="535.6" y="683" font-size="11" font-family="Helvetica, Arial, sans-serif" fill="#6b7280">2 ms</text><text x="26" y="705" font-size="12" font-family="Menlo, Consolas, monospace" fill="#111827">DynamoDB.Query</text><rect x="616.4" y="694" width="2.0" height="14" rx="3" fill="#d97706"/><text x="624.4" y="705" font-size="11" font-family="Helvetica, Arial, sans-serif" fill="#6b7280">6 ms</text><text x="26" y="727" font-size="12" font-family="Menlo, Consolas, monospace" fill="#111827">DynamoDB.PutItem</text><rect x="616.7" y="716" width="2.0" height="14" rx="3" fill="#d97706"/><text x="624.7" y="727" font-size="11" font-family="Helvetica, Arial, sans-serif" fill="#6b7280">3 ms</text><text x="26" y="749" font-size="12" font-family="Menlo, Consolas, monospace" fill="#111827">DynamoDB.PutItem</text><rect x="753.0" y="738" width="2.0" height="14" rx="3" fill="#d97706"/><text x="761.0" y="749" font-size="11" font-family="Helvetica, Arial, sans-serif" fill="#6b7280">3 ms</text><text x="26" y="771" font-size="12" font-family="Menlo, Consolas, monospace" fill="#111827">DynamoDB.PutItem</text><rect x="753.1" y="760" width="2.0" height="14" rx="3" fill="#d97706"/><text x="761.1" y="771" font-size="11" font-family="Helvetica, Arial, sans-serif" fill="#6b7280">2 ms</text><text x="26" y="793" font-size="12" font-family="Menlo, Consolas, monospace" fill="#111827">DynamoDB.UpdateItem</text><rect x="799.5" y="782" width="2.0" height="14" rx="3" fill="#d97706"/><text x="807.5" y="793" font-size="11" font-family="Helvetica, Arial, sans-serif" fill="#6b7280">6 ms</text><text x="26" y="815" font-size="12" font-family="Menlo, Consolas, monospace" fill="#111827">DynamoDB.PutItem</text><rect x="879.9" y="804" width="2.0" height="14" rx="3" fill="#d97706"/><text x="840.0" y="815" font-size="11" font-family="Helvetica, Arial, sans-serif" fill="#6b7280">3 ms</text></svg>
