<svg xmlns="http://www.w3.org/2000/svg" width="900" height="566" viewBox="0 0 900 566"><rect width="900" height="566" fill="#ffffff"/><text x="12" y="20" font-size="13" font-family="Helvetica, Arial, sans-serif" fill="#374151">One SMS turn · 25577 ms · 23 spans</text><text x="12" y="45" font-size="12" font-family="Menlo, Consolas, monospace" fill="#111827">Strands Agent</text><rect x="300.0" y="34" width="580.0" height="14" rx="3" fill="#2563eb"/><text x="840.0" y="45" font-size="11" font-family="Helvetica, Arial, sans-serif" fill="#6b7280">25577 ms</text><text x="26" y="67" font-size="12" font-family="Menlo, Consolas, monospace" fill="#111827">Cycle 33f28eca-7fc4-43f2-9993-d39074e...</text><rect x="300.0" y="56" width="169.4" height="14" rx="3" fill="#2563eb"/><text x="475.4" y="67" font-size="11" font-family="Helvetica, Arial, sans-serif" fill="#6b7280">7472 ms</text><text x="40" y="89" font-size="12" font-family="Menlo, Consolas, monospace" fill="#111827">Model invoke</text><rect x="300.0" y="78" width="169.4" height="14" rx="3" fill="#2563eb"/><text x="475.4" y="89" font-size="11" font-family="Helvetica, Arial, sans-serif" fill="#6b7280">7470 ms</text><text x="40" y="111" font-size="12" font-family="Menlo, Consolas, monospace" fill="#111827">Tool: resolve_date</text><rect x="469.4" y="100" width="2.0" height="14" rx="3" fill="#059669"/><text x="477.4" y="111" font-size="11" font-family="Helvetica, Arial, sans-serif" fill="#6b7280">1 ms</text><text x="26" y="133" font-size="12" font-family="Menlo, Consolas, monospace" fill="#111827">Cycle 0e6a88aa-a4a3-486d-94aa-ddeebd7...</text><rect x="469.5" y="122" width="71.5" height="14" rx="3" fill="#2563eb"/><text x="546.9" y="133" font-size="11" font-family="Helvetica, Arial, sans-serif" fill="#6b7280">3152 ms</text><text x="40" y="155" font-size="12" font-family="Menlo, Consolas, monospace" fill="#111827">Model invoke</text><rect x="469.5" y="144" width="71.4" height="14" rx="3" fill="#2563eb"/><text x="546.8" y="155" font-size="11" font-family="Helvetica, Arial, sans-serif" fill="#6b7280">3147 ms</text><text x="40" y="177" font-size="12" font-family="Menlo, Consolas, monospace" fill="#111827">Tool: create_work_cycle</text><rect x="540.8" y="166" width="2.0" height="14" rx="3" fill="#059669"/><text x="548.8" y="177" font-size="11" font-family="Helvetica, Arial, sans-serif" fill="#6b7280">5 ms</text><text x="26" y="199" font-size="12" font-family="Menlo, Consolas, monospace" fill="#111827">Cycle 4d05a355-6246-4116-9fab-0f4c720...</text><rect x="540.9" y="188" width="54.3" height="14" rx="3" fill="#2563eb"/><text x="601.2" y="199" font-size="11" font-family="Helvetica, Arial, sans-serif" fill="#6b7280">2395 ms</text><text x="40" y="221" font-size="12" font-family="Menlo, Consolas, monospace" fill="#111827">Model invoke</text><rect x="540.9" y="210" width="54.2" height="14" rx="3" fill="#2563eb"/><text x="601.1" y="221" font-size="11" font-family="Helvetica, Arial, sans-serif" fill="#6b7280">2389 ms</text><text x="40" y="243" font-size="12" font-family="Menlo, Consolas, monospace" fill="#111827">Tool: create_project</text><rect x="595.1" y="232" width="2.0" height="14" rx="3" fill="#059669"/><text x="603.1" y="243" font-size="11" font-family="Helvetica, Arial, sans-serif" fill="#6b7280">5 ms</text><text x="26" y="265" font-size="12" font-family="Menlo, Consolas, monospace" fill="#111827">Cycle 66faa822-b335-4db1-8acb-ea1291b...</text><rect x="595.2" y="254" width="55.1" height="14" rx="3" fill="#2563eb"/><text x="656.3" y="265" font-size="11" font-family="Helvetica, Arial, sans-serif" fill="#6b7280">2428 ms</text><text x="40" y="287" font-size="12" font-family="Menlo, Consolas, monospace" fill="#111827">Model invoke</text><rect x="595.2" y="276" width="54.9" height="14" rx="3" fill="#2563eb"/><text x="656.1" y="287" font-size="11" font-family="Helvetica, Arial, sans-serif" fill="#6b7280">2419 ms</text><text x="40" y="309" font-size="12" font-family="Menlo, Consolas, monospace" fill="#111827">Tool: create_work_cycle</text><rect x="650.1" y="298" width="2.0" height="14" rx="3" fill="#059669"/><text x="658.1" y="309" font-size="11" font-family="Helvetica, Arial, sans-serif" fill="#6b7280">8 ms</text><text x="26" y="331" font-size="12" font-family="Menlo, Consolas, monospace" fill="#111827">Cycle 27d8b94d-e2b8-4a34-abad-64910e2...</text><rect x="650.3" y="320" width="109.8" height="14" rx="3" fill="#2563eb"/><text x="766.1" y="331" font-size="11" font-family="Helvetica, Arial, sans-serif" fill="#6b7280">4842 ms</text><text x="40" y="353" font-size="12" font-family="Menlo, Consolas, monospace" fill="#111827">Model invoke</text><rect x="650.3" y="342" width="109.6" height="14" rx="3" fill="#2563eb"/><text x="765.9" y="353" font-size="11" font-family="Helvetica, Arial, sans-serif" fill="#6b7280">4833 ms</text><text x="40" y="375" font-size="12" font-family="Menlo, Consolas, monospace" fill="#111827">Tool: create_task</text><rect x="759.9" y="364" width="2.0" height="14" rx="3" fill="#059669"/><text x="767.9" y="375" font-size="11" font-family="Helvetica, Arial, sans-serif" fill="#6b7280">5 ms</text><text x="40" y="397" font-size="12" font-family="Menlo, Consolas, monospace" fill="#111827">Tool: create_task</text><rect x="760.0" y="386" width="2.0" height="14" rx="3" fill="#059669"/><text x="768.0" y="397" font-size="11" font-family="Helvetica, Arial, sans-serif" fill="#6b7280">2 ms</text><text x="26" y="419" font-size="12" font-family="Menlo, Consolas, monospace" fill="#111827">Cycle 2a6a176a-d72c-4bd8-85e9-b8341fd...</text><rect x="760.1" y="408" width="61.2" height="14" rx="3" fill="#2563eb"/><text x="827.3" y="419" font-size="11" font-family="Helvetica, Arial, sans-serif" fill="#6b7280">2698 ms</text><text x="40" y="441" font-size="12" font-family="Menlo, Consolas, monospace" fill="#111827">Model invoke</text><rect x="760.1" y="430" width="60.9" height="14" rx="3" fill="#2563eb"/><text x="827.0" y="441" font-size="11" font-family="Helvetica, Arial, sans-serif" fill="#6b7280">2686 ms</text><text x="40" y="463" font-size="12" font-family="Menlo, Consolas, monospace" fill="#111827">Tool: set_user_preference</text><rect x="821.1" y="452" width="2.0" height="14" rx="3" fill="#059669"/><text x="829.1" y="463" font-size="11" font-family="Helvetica, Arial, sans-serif" fill="#6b7280">7 ms</text><text x="40" y="485" font-size="12" font-family="Menlo, Consolas, monospace" fill="#111827">Tool: complete_onboarding</text><rect x="821.2" y="474" width="2.0" height="14" rx="3" fill="#059669"/><text x="829.2" y="485" font-size="11" font-family="Helvetica, Arial, sans-serif" fill="#6b7280">4 ms</text><text x="26" y="507" font-size="12" font-family="Menlo, Consolas, monospace" fill="#111827">Cycle 0282e82f-5e25-42dd-81b9-6db1e0e...</text><rect x="821.3" y="496" width="58.7" height="14" rx="3" fill="#2563eb"/><text x="840.0" y="507" font-size="11" font-family="Helvetica, Arial, sans-serif" fill="#6b7280">2588 ms</text><text x="40" y="529" font-size="12" font-family="Menlo, Consolas, monospace" fill="#111827">Model invoke</text><rect x="821.3" y="518" width="58.7" height="14" rx="3" fill="#2563eb"/><text x="840.0" y="529" font-size="11" font-family="Helvetica, Arial, sans-serif" fill="#6b7280">2587 ms</text></svg>
